<?xml version="1.0" encoding="UTF-8"?>
<svg id="Layer_1" data-name="Layer 1" xmlns="http://www.w3.org/2000/svg" viewBox="0 0 434.22 135.98">
  <defs>
    <style>
      .cls-1 {
        fill: #ffcd05;
      }

      .cls-2 {
        fill: #db1f26;
      }

      .cls-3 {
        fill: #010101;
      }

      .cls-4 {
        fill: #e82128;
      }
    </style>
  </defs>
  <g>
    <polygon class="cls-4" points="27.69 56.29 27.55 97.35 .04 97.35 .03 .02 27.54 0 27.58 39.22 31.12 34.08 45.52 13.75 47.15 11.95 55.49 .1 84.28 .09 86.74 .08 66.41 28.23 52.27 47.85 60.27 58.64 65.13 65.32 88.6 97.33 55.95 97.36 50.1 88.81 46.31 83.35 44.62 81.3 27.69 56.29"/>
    <path class="cls-4" d="M281.39,50.62c1.22,7.89,1.23,15.46-.34,23.07-.83,3.6-1.88,6.97-3.52,10.18l-1.39,1.64c-2.93,4.88-7.14,8.58-12.2,11.14-4.47,1.93-9.08,2.87-13.94,2.62-3.8-.12-7.49-.84-10.81-2.58-3.54-1.78-5.86-4.25-8.22-7.87l-.06,8.56-23.47-.03V.16s25.22,0,25.22,0v33.14s5.33-5.59,5.33-5.59c3-1.76,6.04-2.98,9.48-3.59l7.82-.06,7.96,1.84c5.25,2.09,9.61,5.6,12.46,10.53l1.83,2.32c1.88,3.68,3.03,7.56,3.86,11.87ZM244.85,80.43c2.64-.21,4.81-1.21,6.66-2.87,1.56-2.08,2.52-4.33,3.17-6.9.75-5.29.85-10.52.07-15.82-.54-3.27-1.81-6.21-4.01-8.65-3.54-2.59-8.01-2.84-11.99-1.04l-3.89,3.99c-1.07,2.88-1.68,5.62-2.16,8.68v9.97c.39,2.54.87,4.89,1.73,7.27,2.13,3.79,5.89,5.84,10.42,5.38Z"/>
    <path class="cls-4" d="M121.96,99.28l-10.58-1.24c-5.53-1.37-10.52-3.75-14.89-7.4-5.25-4.55-8.56-10.42-10.27-17.2-1.69-7.67-1.59-15.4.1-23.08,1.61-6.68,4.87-12.55,9.81-17.23,3.09-2.69,6.25-4.82,10.04-6.33,4.21-1.56,8.46-2.45,13-2.58,5.86-.27,11.48-.12,17.22.96,7.56,1.44,14.11,5.13,19.21,10.84,4.05,4.39,6.56,9.59,7.94,15.44,1.48,7.11,1.42,14.26-.21,21.34-1.68,6.98-5.13,13-10.51,17.7-3.28,3.04-7.07,5.01-11.32,6.52-6.3,1.89-12.72,2.49-19.54,2.26ZM127.4,80.91c2.54-.59,4.37-1.76,6.01-3.56,1.48-2.09,2.41-4.44,3.04-7.01.96-5.58.88-11.07.05-16.68l-2.4-6.13c-2.67-4.14-7.27-6.28-12.14-5.27-3.36.4-5.94,2.49-7.59,5.42-1.41,2.96-2.1,6.08-2.58,9.38l-.02,10.41c.49,2.67,1.11,5.11,2.07,7.6,1.12,1.82,2.34,3.33,4.03,4.58,3.02,1.23,6.12,1.85,9.51,1.25Z"/>
    <path class="cls-4" d="M399.72,45.02c-3.59.06-6.1,2.02-7.39,5.07-.97,2.84-1.34,5.64-1.63,8.75l-.02,38.54h-25.27s0-71.49,0-71.49l24.48.03.04,7.8c3.53-5.01,8.27-8.14,14.29-9.26,4.34-.62,8.66-.46,13.06.22,5.81,1.06,10.43,4.55,13.47,9.5l1.5,2.26c1.26,3.79,1.88,7.41,1.93,11.49v49.44s-25.39,0-25.39,0v-40.1c-.03-2.77-.39-5.23-1.08-7.81-1.52-2.99-4.41-4.81-8-4.45Z"/>
    <path class="cls-4" d="M335.46,75.37l24.1-.04c-.64,4.01-2.09,7.49-4.07,10.87l-2.21,2.25c-3.72,4-8.13,6.83-13.35,8.57-3.79,1.15-7.59,1.81-11.59,2.16-5.42.23-10.57.09-15.87-.9-6.69-1.35-12.66-4.44-17.38-9.31-2.87-3.19-4.9-6.65-6.48-10.63-1.63-4.81-2.52-9.68-2.59-14.82-.13-6.9.85-13.5,3.58-19.78,3.72-8.16,10.19-14.27,18.53-17.45l8.78-2.06,11.8-.08c3.6.45,6.95,1.15,10.38,2.27,5.54,2.28,10.33,5.79,13.67,10.8l1.6,1.78c1.54,2.68,2.73,5.56,3.65,8.58,1.03,4.71,1.57,9.26,1.51,14.07l-.18,7.09h-48.21c-.03,3.73,1.25,7.27,3.78,10.03,2.18,1.92,4.8,2.77,7.72,3.15,2.66.07,5.29-.29,7.82-1.02,2.33-1.15,4.23-2.54,5.02-5.56ZM335.08,53.53c-.14-2.63-.55-4.53-1.3-6.51-1.53-2.97-4-4.79-7.28-5.46l-5.37-.12c-2.99.61-5.39,1.96-7.22,4.39-1.47,2.29-2.29,4.85-2.56,7.72h23.74Z"/>
    <rect class="cls-4" x="170.56" y=".12" width="26.86" height="97.32"/>
  </g>
  <rect class="cls-3" y="111.17" width="434.22" height="8.27"/>
  <rect class="cls-2" y="119.44" width="434.22" height="8.27"/>
  <rect class="cls-1" y="127.71" width="434.22" height="8.27"/>
</svg>